# This file uses centimeters as units for non-parametric coordinates.

mtllib Floater_Quad.mtl
g default
v 0.371482 -0.355730 0.349974
v 0.500000 -0.355730 0.349974
v 0.371482 0.355730 0.349974
v 0.500000 0.355730 0.349974
v 0.371482 0.355730 -0.361486
v 0.500000 0.355730 -0.361486
v 0.371482 -0.355730 -0.361486
v 0.500000 -0.355730 -0.361486
v -0.500000 -0.355730 0.349974
v -0.371482 -0.355730 0.349974
v -0.500000 0.355730 0.349974
v -0.371482 0.355730 0.349974
v -0.500000 0.355730 -0.361486
v -0.371482 0.355730 -0.361486
v -0.500000 -0.355730 -0.361486
v -0.371482 -0.355730 -0.361486
v 0.355730 -0.355730 -0.377238
v 0.355730 -0.355730 -0.500000
v 0.355730 0.355730 -0.377238
v 0.355730 0.355730 -0.500000
v -0.355730 0.355730 -0.377238
v -0.355730 0.355730 -0.500000
v -0.355730 -0.355730 -0.377238
v -0.355730 -0.355730 -0.500000
v 0.355730 -0.355730 0.500000
v 0.355730 -0.355730 0.365726
v 0.355730 0.355730 0.500000
v 0.355730 0.355730 0.365726
v -0.355730 0.355730 0.500000
v -0.355730 0.355730 0.365726
v -0.355730 -0.355730 0.500000
v -0.355730 -0.355730 0.365726
v -0.445842 -0.444423 0.387609
v -0.389206 -0.444423 0.444245
v 0.443003 -0.444423 0.387609
v 0.386367 -0.444423 0.444245
v -0.445842 -0.444423 -0.387964
v -0.389206 -0.444423 -0.444600
v 0.443003 -0.444423 -0.387964
v 0.386367 -0.444423 -0.444600
v -0.307011 0.444423 0.325897
v -0.351642 0.444423 0.284342
v 0.304171 0.444423 0.325897
v 0.348803 0.444423 0.284342
v 0.348803 0.444423 -0.284697
v 0.304171 0.444423 -0.326252
v -0.307011 0.444423 -0.326252
v -0.351642 0.444423 -0.284697
v -0.307011 0.407131 0.325897
v -0.351642 0.407131 0.284342
v 0.304171 0.407131 0.325897
v 0.348803 0.407131 0.284342
v 0.348803 0.407131 -0.284697
v 0.304171 0.407131 -0.326252
v -0.307011 0.407131 -0.326252
v -0.351642 0.407131 -0.284697
v -0.445842 0.424203 0.387609
v -0.425623 0.444423 0.379233
v -0.445842 0.424203 -0.387964
v -0.425623 0.444423 -0.379589
v -0.389206 0.424203 0.444245
v -0.380831 0.444423 0.424026
v 0.386367 0.424203 0.444245
v 0.377991 0.444423 0.424026
v 0.443003 0.424203 0.387609
v 0.422783 0.444423 0.379233
v 0.443003 0.424203 -0.387964
v 0.422783 0.444423 -0.379589
v -0.389206 0.424203 -0.444600
v -0.380831 0.444423 -0.424381
v 0.386367 0.424203 -0.444600
v 0.377991 0.444423 -0.424381
vt 0.375000 0.000000
vt 0.625000 0.000000
vt 0.375000 0.250000
vt 0.625000 0.250000
vt 0.375000 0.500000
vt 0.625000 0.500000
vt 0.375000 0.750000
vt 0.625000 0.750000
vt 0.375000 1.000000
vt 0.625000 1.000000
vt 0.875000 0.000000
vt 0.875000 0.250000
vt 0.125000 0.000000
vt 0.125000 0.250000
vt 0.375000 0.000000
vt 0.625000 0.000000
vt 0.625000 0.250000
vt 0.375000 0.250000
vt 0.625000 0.500000
vt 0.375000 0.500000
vt 0.625000 0.750000
vt 0.375000 0.750000
vt 0.625000 1.000000
vt 0.375000 1.000000
vt 0.875000 0.000000
vt 0.875000 0.250000
vt 0.125000 0.000000
vt 0.125000 0.250000
vt 0.375000 0.000000
vt 0.625000 0.000000
vt 0.625000 0.250000
vt 0.375000 0.250000
vt 0.625000 0.500000
vt 0.375000 0.500000
vt 0.625000 0.750000
vt 0.375000 0.750000
vt 0.625000 1.000000
vt 0.375000 1.000000
vt 0.875000 0.000000
vt 0.875000 0.250000
vt 0.125000 0.000000
vt 0.125000 0.250000
vt 0.375000 0.000000
vt 0.625000 0.000000
vt 0.625000 0.250000
vt 0.375000 0.250000
vt 0.625000 0.500000
vt 0.375000 0.500000
vt 0.625000 0.750000
vt 0.375000 0.750000
vt 0.625000 1.000000
vt 0.375000 1.000000
vt 0.875000 0.000000
vt 0.875000 0.250000
vt 0.125000 0.000000
vt 0.125000 0.250000
vt 0.375000 0.265930
vt 0.390930 0.250000
vt 0.609070 0.250000
vt 0.625000 0.265930
vt 0.625000 0.484070
vt 0.609070 0.500000
vt 0.390930 0.500000
vt 0.375000 0.484070
vt 0.375000 0.765930
vt 0.390930 0.750000
vt 0.609070 0.750000
vt 0.625000 0.765930
vt 0.625000 0.984070
vt 0.609070 1.000000
vt 0.390930 1.000000
vt 0.375000 0.984070
vt 0.375000 0.265930
vt 0.390930 0.250000
vt 0.609070 0.250000
vt 0.625000 0.265930
vt 0.625000 0.484070
vt 0.609070 0.500000
vt 0.390930 0.500000
vt 0.375000 0.484070
vt 0.359070 0.244313
vt 0.356715 0.250000
vt 0.143285 0.250000
vt 0.140930 0.244313
vt 0.362402 0.250000
vt 0.390930 0.244313
vt 0.387598 0.250000
vt 0.375000 0.490482
vt 0.377391 0.486461
vt 0.389989 0.499059
vt 0.390930 0.505687
vt 0.389989 0.250941
vt 0.609070 0.244313
vt 0.606715 0.250000
vt 0.612402 0.250000
vt 0.640930 0.244313
vt 0.637598 0.250000
vt 0.643285 0.250000
vt 0.859070 0.244313
vt 0.856715 0.250000
vt 0.622609 0.486461
vt 0.625000 0.490482
vt 0.609070 0.505687
vt 0.610011 0.499059
vt 0.390930 0.000000
vt 0.609070 0.000000
vt 0.640930 0.000000
vt 0.859070 0.000000
vt 0.140930 0.000000
vt 0.359070 0.000000
vt 0.377391 0.263539
vt 0.610011 0.250941
vt 0.622609 0.263539
vn 0.000000 0.000000 1.000000
vn 0.000000 0.000000 1.000000
vn 0.000000 0.000000 1.000000
vn 0.000000 0.000000 1.000000
vn 0.000000 1.000000 0.000000
vn 0.000000 1.000000 0.000000
vn 0.000000 1.000000 0.000000
vn 0.000000 1.000000 0.000000
vn 0.000000 0.000000 -1.000000
vn 0.000000 0.000000 -1.000000
vn 0.000000 0.000000 -1.000000
vn 0.000000 0.000000 -1.000000
vn 0.000000 -1.000000 0.000000
vn 0.000000 -1.000000 0.000000
vn 0.000000 -1.000000 0.000000
vn 0.000000 -1.000000 0.000000
vn 1.000000 0.000000 0.000000
vn 1.000000 0.000000 0.000000
vn 1.000000 0.000000 0.000000
vn 1.000000 0.000000 0.000000
vn -1.000000 0.000000 0.000000
vn -1.000000 0.000000 0.000000
vn -1.000000 0.000000 0.000000
vn -1.000000 0.000000 0.000000
vn 0.000000 0.000000 1.000000
vn 0.000000 0.000000 1.000000
vn 0.000000 0.000000 1.000000
vn 0.000000 0.000000 1.000000
vn 0.000000 1.000000 0.000000
vn 0.000000 1.000000 0.000000
vn 0.000000 1.000000 0.000000
vn 0.000000 1.000000 0.000000
vn 0.000000 0.000000 -1.000000
vn 0.000000 0.000000 -1.000000
vn 0.000000 0.000000 -1.000000
vn 0.000000 0.000000 -1.000000
vn 0.000000 -1.000000 0.000000
vn 0.000000 -1.000000 0.000000
vn 0.000000 -1.000000 0.000000
vn 0.000000 -1.000000 0.000000
vn 1.000000 0.000000 0.000000
vn 1.000000 0.000000 0.000000
vn 1.000000 0.000000 0.000000
vn 1.000000 0.000000 0.000000
vn -1.000000 0.000000 0.000000
vn -1.000000 0.000000 0.000000
vn -1.000000 0.000000 0.000000
vn -1.000000 0.000000 0.000000
vn 1.000000 0.000000 0.000000
vn 1.000000 0.000000 0.000000
vn 1.000000 0.000000 0.000000
vn 1.000000 0.000000 0.000000
vn 0.000000 1.000000 0.000000
vn 0.000000 1.000000 0.000000
vn 0.000000 1.000000 0.000000
vn 0.000000 1.000000 0.000000
vn -1.000000 0.000000 0.000000
vn -1.000000 0.000000 0.000000
vn -1.000000 0.000000 0.000000
vn -1.000000 0.000000 0.000000
vn 0.000000 -1.000000 0.000000
vn 0.000000 -1.000000 0.000000
vn 0.000000 -1.000000 0.000000
vn 0.000000 -1.000000 0.000000
vn 0.000000 0.000000 -1.000000
vn 0.000000 0.000000 -1.000000
vn 0.000000 0.000000 -1.000000
vn 0.000000 0.000000 -1.000000
vn 0.000000 0.000000 1.000000
vn 0.000000 0.000000 1.000000
vn 0.000000 0.000000 1.000000
vn 0.000000 0.000000 1.000000
vn 1.000000 0.000000 0.000000
vn 1.000000 0.000000 0.000000
vn 1.000000 0.000000 0.000000
vn 1.000000 0.000000 0.000000
vn 0.000000 1.000000 0.000000
vn 0.000000 1.000000 0.000000
vn 0.000000 1.000000 0.000000
vn 0.000000 1.000000 0.000000
vn -1.000000 0.000000 0.000000
vn -1.000000 0.000000 0.000000
vn -1.000000 0.000000 0.000000
vn -1.000000 0.000000 0.000000
vn 0.000000 -1.000000 0.000000
vn 0.000000 -1.000000 0.000000
vn 0.000000 -1.000000 0.000000
vn 0.000000 -1.000000 0.000000
vn 0.000000 0.000000 -1.000000
vn 0.000000 0.000000 -1.000000
vn 0.000000 0.000000 -1.000000
vn 0.000000 0.000000 -1.000000
vn 0.000000 0.000000 1.000000
vn 0.000000 0.000000 1.000000
vn 0.000000 0.000000 1.000000
vn 0.000000 0.000000 1.000000
vn 0.000000 1.000000 -0.000000
vn 0.000000 1.000000 -0.000000
vn 0.000000 1.000000 -0.000000
vn 0.000000 1.000000 -0.000000
vn 0.000000 1.000000 -0.000000
vn 0.000000 1.000000 -0.000000
vn 0.000000 1.000000 -0.000000
vn 0.000000 1.000000 -0.000000
vn 0.000000 -1.000000 0.000000
vn 0.000000 -1.000000 0.000000
vn 0.000000 -1.000000 0.000000
vn 0.000000 -1.000000 0.000000
vn 0.000000 -1.000000 0.000000
vn 0.000000 -1.000000 0.000000
vn 0.000000 -1.000000 0.000000
vn 0.000000 -1.000000 0.000000
vn 0.681423 0.000000 -0.731890
vn 0.681423 0.000000 -0.731890
vn 0.681423 0.000000 -0.731890
vn 0.681423 0.000000 -0.731890
vn 0.000000 0.000000 -1.000000
vn 0.000000 0.000000 -1.000000
vn 0.000000 0.000000 -1.000000
vn 0.000000 0.000000 -1.000000
vn -0.681423 0.000000 -0.731890
vn -0.681423 0.000000 -0.731890
vn -0.681423 0.000000 -0.731890
vn -0.681423 0.000000 -0.731890
vn -1.000000 0.000000 0.000000
vn -1.000000 0.000000 0.000000
vn -1.000000 0.000000 0.000000
vn -1.000000 0.000000 0.000000
vn -0.681423 0.000000 0.731890
vn -0.681423 0.000000 0.731890
vn -0.681423 0.000000 0.731890
vn -0.681423 0.000000 0.731890
vn 0.000000 0.000000 1.000000
vn 0.000000 0.000000 1.000000
vn 0.000000 0.000000 1.000000
vn 0.000000 0.000000 1.000000
vn 0.681423 0.000000 0.731890
vn 0.681423 0.000000 0.731890
vn 0.681423 0.000000 0.731890
vn 0.681423 0.000000 0.731890
vn 1.000000 0.000000 0.000000
vn 1.000000 0.000000 0.000000
vn 1.000000 0.000000 0.000000
vn 1.000000 0.000000 0.000000
vn -0.707107 0.707106 0.000000
vn -0.707107 0.707106 0.000000
vn -0.707107 0.707106 0.000000
vn -0.707107 0.707106 0.000000
vn -0.500001 0.707106 0.500001
vn -0.500001 0.707106 0.500001
vn -0.500001 0.707106 0.500001
vn -0.500001 0.707106 0.500001
vn -0.500000 0.707107 -0.500000
vn -0.500000 0.707107 -0.500000
vn -0.500000 0.707107 -0.500000
vn -0.500000 0.707107 -0.500000
vn 0.000000 0.707104 0.707110
vn 0.000000 0.707104 0.707110
vn 0.000000 0.707104 0.707110
vn 0.000000 0.707104 0.707110
vn 0.500001 0.707106 0.500000
vn 0.500001 0.707106 0.500000
vn 0.500001 0.707106 0.500000
vn 0.500001 0.707106 0.500000
vn 0.707105 0.707108 0.000000
vn 0.707105 0.707108 0.000000
vn 0.707105 0.707108 0.000000
vn 0.707105 0.707108 0.000000
vn 0.500000 0.707107 -0.500000
vn 0.500000 0.707107 -0.500000
vn 0.500000 0.707107 -0.500000
vn 0.500000 0.707107 -0.500000
vn 0.000000 0.707108 -0.707106
vn 0.000000 0.707108 -0.707106
vn 0.000000 0.707108 -0.707106
vn 0.000000 0.707108 -0.707106
vn 0.000000 0.000000 1.000000
vn 0.000000 0.000000 1.000000
vn 0.000000 0.000000 1.000000
vn 0.000000 0.000000 1.000000
vn 0.000000 0.000000 -1.000000
vn 0.000000 0.000000 -1.000000
vn 0.000000 0.000000 -1.000000
vn 0.000000 0.000000 -1.000000
vn 1.000000 0.000000 0.000000
vn 1.000000 0.000000 0.000000
vn 1.000000 0.000000 0.000000
vn 1.000000 0.000000 0.000000
vn -1.000000 0.000000 0.000000
vn -1.000000 0.000000 0.000000
vn -1.000000 0.000000 0.000000
vn -1.000000 0.000000 0.000000
vn -0.707106 0.000000 0.707107
vn -0.707106 0.000000 0.707107
vn -0.707106 0.000000 0.707107
vn -0.707106 0.000000 0.707107
vn 0.707106 0.000000 0.707108
vn 0.707106 0.000000 0.707108
vn 0.707106 0.000000 0.707108
vn 0.707106 0.000000 0.707108
vn -0.707106 0.000000 -0.707107
vn -0.707106 0.000000 -0.707107
vn -0.707106 0.000000 -0.707107
vn -0.707106 0.000000 -0.707107
vn 0.707106 0.000000 -0.707108
vn 0.707106 0.000000 -0.707108
vn 0.707106 0.000000 -0.707108
vn 0.707106 0.000000 -0.707108
vn 0.000000 1.000000 0.000000
vn 0.000000 1.000000 -0.000000
vn 0.000000 1.000000 -0.000000
vn 0.000000 1.000000 0.000000
vn 0.000000 1.000000 -0.000000
vn 0.000000 1.000000 -0.000000
vn 0.000000 1.000000 0.000000
vn 0.000000 1.000000 0.000000
vn 0.000000 1.000000 -0.000000
vn 0.000000 1.000000 -0.000000
vn 0.000000 1.000000 0.000000
vn 0.000000 1.000000 0.000000
vn 0.000000 1.000000 0.000000
vn 0.000000 1.000000 0.000000
vn 0.000000 1.000000 -0.000000
vn 0.000000 1.000000 -0.000000
s off
g float_pad_quad
usemtl aiStandard2SG
f 1/1/1 2/2/2 4/4/3 3/3/4
f 3/3/5 4/4/6 6/6/7 5/5/8
f 5/5/9 6/6/10 8/8/11 7/7/12
f 7/7/13 8/8/14 2/10/15 1/9/16
f 2/2/17 8/11/18 6/12/19 4/4/20
f 7/13/21 1/1/22 3/3/23 5/14/24
f 9/15/25 10/16/26 12/17/27 11/18/28
f 11/18/29 12/17/30 14/19/31 13/20/32
f 13/20/33 14/19/34 16/21/35 15/22/36
f 15/22/37 16/21/38 10/23/39 9/24/40
f 10/16/41 16/25/42 14/26/43 12/17/44
f 15/27/45 9/15/46 11/18/47 13/28/48
f 17/29/49 18/30/50 20/31/51 19/32/52
f 19/32/53 20/31/54 22/33/55 21/34/56
f 21/34/57 22/33/58 24/35/59 23/36/60
f 23/36/61 24/35/62 18/37/63 17/38/64
f 18/30/65 24/39/66 22/40/67 20/31/68
f 23/41/69 17/29/70 19/32/71 21/42/72
f 25/43/73 26/44/74 28/45/75 27/46/76
f 27/46/77 28/45/78 30/47/79 29/48/80
f 29/48/81 30/47/82 32/49/83 31/50/84
f 31/50/85 32/49/86 26/51/87 25/52/88
f 26/44/89 32/53/90 30/54/91 28/45/92
f 31/55/93 25/43/94 27/46/95 29/56/96
usemtl aiStandard1SG
f 50/57/97 49/58/98 51/59/99 52/60/100 53/61/101 54/62/102 55/63/103 56/64/104
f 37/65/105 38/66/106 40/67/107 39/68/108 35/69/109 36/70/110 34/71/111 33/72/112
f 42/73/113 41/74/114 49/58/115 50/57/116
f 41/74/117 43/75/118 51/59/119 49/58/120
f 43/75/121 44/76/122 52/60/123 51/59/124
f 44/76/125 45/77/126 53/61/127 52/60/128
f 45/77/129 46/78/130 54/62/131 53/61/132
f 46/78/133 47/79/134 55/63/135 54/62/136
f 47/79/137 48/80/138 56/64/139 55/63/140
f 48/80/141 42/73/142 50/57/143 56/64/144
f 57/81/145 58/82/146 60/83/147 59/84/148
f 58/85/149 57/81/150 61/86/151 62/87/152
f 59/88/153 60/89/154 70/90/155 69/91/156
f 62/92/157 61/86/158 63/93/159 64/94/160
f 64/95/161 63/93/162 65/96/163 66/97/164
f 66/98/165 65/96/166 67/99/167 68/100/168
f 68/101/169 67/102/170 71/103/171 72/104/172
f 69/91/173 70/90/174 72/104/175 71/103/176
f 61/86/177 34/105/178 36/106/179 63/93/180
f 38/66/181 69/91/182 71/103/183 40/67/184
f 65/96/185 35/107/186 39/108/187 67/99/188
f 59/84/189 37/109/190 33/110/191 57/81/192
f 33/110/193 34/105/194 61/86/195 57/81/196
f 36/106/197 35/107/198 65/96/199 63/93/200
f 59/88/201 69/91/202 38/66/203 37/65/204
f 71/103/205 67/102/206 39/68/207 40/67/208
s 1
f 58/111/209 62/92/210 41/74/211 42/73/212
f 62/92/210 64/112/213 43/75/214 41/74/211
f 64/112/213 66/113/215 44/76/216 43/75/214
f 66/113/215 68/101/217 45/77/218 44/76/216
f 68/101/217 72/104/219 46/78/220 45/77/218
f 72/104/219 70/90/221 47/79/222 46/78/220
f 70/90/221 60/89/223 48/80/224 47/79/222
f 60/89/223 58/111/209 42/73/212 48/80/224
