# This file uses centimeters as units for non-parametric coordinates.

mtllib Wall_Spikes.mtl
g default
v 0.256576 -0.196026 -0.286831
v 0.256576 -0.104991 -0.219881
v 0.256576 -0.171941 -0.128846
v 0.256576 -0.262977 -0.195796
v 0.491638 -0.183984 -0.207839
v 0.256576 -0.241705 0.171820
v 0.256576 -0.128729 0.169353
v 0.256576 -0.126262 0.282329
v 0.256576 -0.239239 0.284796
v 0.491638 -0.183984 0.227074
v 0.256576 0.228246 -0.282717
v 0.256576 0.275232 -0.179946
v 0.256576 0.172460 -0.132959
v 0.256576 0.125474 -0.235731
v 0.491638 0.200353 -0.207839
v 0.256576 -0.000000 -0.075452
v 0.256576 0.079905 0.004453
v 0.256576 0.000000 0.084359
v 0.256576 -0.079905 0.004453
v 0.491638 0.000000 0.004453
v 0.256576 0.183420 0.148984
v 0.256576 0.278443 0.210141
v 0.256576 0.217286 0.305165
v 0.256576 0.122262 0.244007
v 0.491638 0.200353 0.227074
vt 0.500000 0.000000
vt 0.750000 0.250000
vt 0.500000 0.500000
vt 0.250000 0.250000
vt 0.250000 0.500000
vt 0.375000 0.500000
vt 0.500000 1.000000
vt 0.500000 0.500000
vt 0.625000 0.500000
vt 0.750000 0.500000
vt 0.500000 0.000000
vt 0.750000 0.250000
vt 0.500000 0.500000
vt 0.250000 0.250000
vt 0.250000 0.500000
vt 0.375000 0.500000
vt 0.500000 1.000000
vt 0.500000 0.500000
vt 0.625000 0.500000
vt 0.750000 0.500000
vt 0.500000 0.000000
vt 0.750000 0.250000
vt 0.500000 0.500000
vt 0.250000 0.250000
vt 0.250000 0.500000
vt 0.375000 0.500000
vt 0.500000 1.000000
vt 0.500000 0.500000
vt 0.625000 0.500000
vt 0.750000 0.500000
vt 0.500000 0.000000
vt 0.750000 0.250000
vt 0.500000 0.500000
vt 0.250000 0.250000
vt 0.250000 0.500000
vt 0.375000 0.500000
vt 0.500000 1.000000
vt 0.500000 0.500000
vt 0.625000 0.500000
vt 0.750000 0.500000
vt 0.500000 0.000000
vt 0.750000 0.250000
vt 0.500000 0.500000
vt 0.250000 0.250000
vt 0.250000 0.500000
vt 0.375000 0.500000
vt 0.500000 1.000000
vt 0.500000 0.500000
vt 0.625000 0.500000
vt 0.750000 0.500000
vn -1.000000 0.000000 0.000000
vn -1.000000 0.000000 0.000000
vn -1.000000 0.000000 0.000000
vn -1.000000 0.000000 0.000000
vn 0.233712 0.576054 -0.783288
vn 0.233712 0.576054 -0.783288
vn 0.233712 0.576054 -0.783288
vn 0.233713 0.783287 0.576055
vn 0.233713 0.783287 0.576055
vn 0.233713 0.783287 0.576055
vn 0.233713 -0.576056 0.783286
vn 0.233713 -0.576056 0.783286
vn 0.233713 -0.576056 0.783286
vn 0.233712 -0.783285 -0.576058
vn 0.233712 -0.783285 -0.576058
vn 0.233712 -0.783285 -0.576058
vn -1.000000 0.000000 0.000000
vn -1.000000 0.000000 0.000000
vn -1.000000 0.000000 0.000000
vn -1.000000 0.000000 0.000000
vn 0.233712 -0.021225 -0.972074
vn 0.233712 -0.021225 -0.972074
vn 0.233712 -0.021225 -0.972074
vn 0.233713 0.972074 -0.021225
vn 0.233713 0.972074 -0.021225
vn 0.233713 0.972074 -0.021225
vn 0.233713 0.021222 0.972074
vn 0.233713 0.021222 0.972074
vn 0.233713 0.021222 0.972074
vn 0.233712 -0.972074 0.021222
vn 0.233712 -0.972074 0.021222
vn 0.233712 -0.972074 0.021222
vn -1.000000 0.000000 0.000000
vn -1.000000 0.000000 0.000000
vn -1.000000 0.000000 0.000000
vn -1.000000 0.000000 0.000000
vn 0.233712 0.884271 -0.404282
vn 0.233712 0.884271 -0.404282
vn 0.233712 0.884271 -0.404282
vn 0.233713 0.404281 0.884271
vn 0.233713 0.404281 0.884271
vn 0.233713 0.404281 0.884271
vn 0.233713 -0.884272 0.404280
vn 0.233713 -0.884272 0.404280
vn 0.233713 -0.884272 0.404280
vn 0.233712 -0.404279 -0.884272
vn 0.233712 -0.404278 -0.884272
vn 0.233712 -0.404279 -0.884272
vn -1.000000 0.000000 0.000000
vn -1.000000 0.000000 0.000000
vn -1.000000 0.000000 0.000000
vn -1.000000 0.000000 0.000000
vn 0.233712 0.687523 -0.687525
vn 0.233712 0.687523 -0.687525
vn 0.233712 0.687523 -0.687525
vn 0.233713 0.687524 0.687523
vn 0.233713 0.687524 0.687523
vn 0.233713 0.687524 0.687523
vn 0.233713 -0.687524 0.687523
vn 0.233713 -0.687524 0.687523
vn 0.233713 -0.687524 0.687523
vn 0.233712 -0.687523 -0.687525
vn 0.233712 -0.687523 -0.687525
vn 0.233712 -0.687523 -0.687525
vn -1.000000 0.000000 0.000000
vn -1.000000 0.000000 0.000000
vn -1.000000 0.000000 0.000000
vn -1.000000 0.000000 0.000000
vn 0.233712 0.526212 -0.817606
vn 0.233712 0.526212 -0.817606
vn 0.233712 0.526212 -0.817606
vn 0.233713 0.817605 0.526213
vn 0.233713 0.817605 0.526213
vn 0.233713 0.817605 0.526213
vn 0.233713 -0.526214 0.817605
vn 0.233713 -0.526214 0.817605
vn 0.233713 -0.526214 0.817605
vn 0.233712 -0.817604 -0.526215
vn 0.233712 -0.817604 -0.526215
vn 0.233712 -0.817604 -0.526215
s off
g spikes4 Wall_spike
usemtl aiStandard3SG
f 1/1/1 4/2/2 3/3/3 2/4/4
f 1/5/5 2/6/6 5/7/7
f 2/6/8 3/8/9 5/7/10
f 3/8/11 4/9/12 5/7/13
f 4/9/14 1/10/15 5/7/16
f 6/11/17 9/12/18 8/13/19 7/14/20
f 6/15/21 7/16/22 10/17/23
f 7/16/24 8/18/25 10/17/26
f 8/18/27 9/19/28 10/17/29
f 9/19/30 6/20/31 10/17/32
f 11/21/33 14/22/34 13/23/35 12/24/36
f 11/25/37 12/26/38 15/27/39
f 12/26/40 13/28/41 15/27/42
f 13/28/43 14/29/44 15/27/45
f 14/29/46 11/30/47 15/27/48
f 16/31/49 19/32/50 18/33/51 17/34/52
f 16/35/53 17/36/54 20/37/55
f 17/36/56 18/38/57 20/37/58
f 18/38/59 19/39/60 20/37/61
f 19/39/62 16/40/63 20/37/64
f 21/41/65 24/42/66 23/43/67 22/44/68
f 21/45/69 22/46/70 25/47/71
f 22/46/72 23/48/73 25/47/74
f 23/48/75 24/49/76 25/47/77
f 24/49/78 21/50/79 25/47/80
g default
v 0.181709 0.284720 -0.446408
v 0.267690 0.284720 -0.446408
v 0.181709 0.389941 -0.446408
v 0.267690 0.389941 -0.446408
v 0.181709 0.389941 -0.510417
v 0.267690 0.389941 -0.510417
v 0.181709 0.284720 -0.510417
v 0.267690 0.284720 -0.510417
v 0.181709 -0.397538 -0.446408
v 0.267690 -0.397538 -0.446408
v 0.181709 -0.292317 -0.446408
v 0.267690 -0.292317 -0.446408
v 0.181709 -0.292317 -0.510417
v 0.267690 -0.292317 -0.510417
v 0.181709 -0.397538 -0.510417
v 0.267690 -0.397538 -0.510417
v 0.181709 0.284720 0.505536
v 0.267690 0.284720 0.505536
v 0.181709 0.389941 0.505536
v 0.267690 0.389941 0.505536
v 0.181709 0.389941 0.441528
v 0.267690 0.389941 0.441528
v 0.181709 0.284720 0.441528
v 0.267690 0.284720 0.441528
v 0.181709 -0.397538 0.505536
v 0.267690 -0.397538 0.505536
v 0.181709 -0.292317 0.505536
v 0.267690 -0.292317 0.505536
v 0.181709 -0.292317 0.441528
v 0.267690 -0.292317 0.441528
v 0.181709 -0.397538 0.441528
v 0.267690 -0.397538 0.441528
vt 0.375000 0.000000
vt 0.625000 0.000000
vt 0.375000 0.250000
vt 0.625000 0.250000
vt 0.375000 0.500000
vt 0.625000 0.500000
vt 0.375000 0.750000
vt 0.625000 0.750000
vt 0.375000 1.000000
vt 0.625000 1.000000
vt 0.875000 0.000000
vt 0.875000 0.250000
vt 0.125000 0.000000
vt 0.125000 0.250000
vt 0.375000 0.000000
vt 0.625000 0.000000
vt 0.625000 0.250000
vt 0.375000 0.250000
vt 0.625000 0.500000
vt 0.375000 0.500000
vt 0.625000 0.750000
vt 0.375000 0.750000
vt 0.625000 1.000000
vt 0.375000 1.000000
vt 0.875000 0.000000
vt 0.875000 0.250000
vt 0.125000 0.000000
vt 0.125000 0.250000
vt 0.375000 0.000000
vt 0.625000 0.000000
vt 0.625000 0.250000
vt 0.375000 0.250000
vt 0.625000 0.500000
vt 0.375000 0.500000
vt 0.625000 0.750000
vt 0.375000 0.750000
vt 0.625000 1.000000
vt 0.375000 1.000000
vt 0.875000 0.000000
vt 0.875000 0.250000
vt 0.125000 0.000000
vt 0.125000 0.250000
vt 0.375000 0.000000
vt 0.625000 0.000000
vt 0.625000 0.250000
vt 0.375000 0.250000
vt 0.625000 0.500000
vt 0.375000 0.500000
vt 0.625000 0.750000
vt 0.375000 0.750000
vt 0.625000 1.000000
vt 0.375000 1.000000
vt 0.875000 0.000000
vt 0.875000 0.250000
vt 0.125000 0.000000
vt 0.125000 0.250000
vn 0.000000 0.000000 1.000000
vn 0.000000 0.000000 1.000000
vn 0.000000 0.000000 1.000000
vn 0.000000 0.000000 1.000000
vn 0.000000 1.000000 0.000000
vn 0.000000 1.000000 0.000000
vn 0.000000 1.000000 0.000000
vn 0.000000 1.000000 0.000000
vn 0.000000 0.000000 -1.000000
vn 0.000000 0.000000 -1.000000
vn 0.000000 0.000000 -1.000000
vn 0.000000 0.000000 -1.000000
vn 0.000000 -1.000000 0.000000
vn 0.000000 -1.000000 0.000000
vn 0.000000 -1.000000 0.000000
vn 0.000000 -1.000000 0.000000
vn 1.000000 0.000000 0.000000
vn 1.000000 0.000000 0.000000
vn 1.000000 0.000000 0.000000
vn 1.000000 0.000000 0.000000
vn -1.000000 0.000000 0.000000
vn -1.000000 0.000000 0.000000
vn -1.000000 0.000000 0.000000
vn -1.000000 0.000000 0.000000
vn 0.000000 0.000000 1.000000
vn 0.000000 0.000000 1.000000
vn 0.000000 0.000000 1.000000
vn 0.000000 0.000000 1.000000
vn 0.000000 1.000000 0.000000
vn 0.000000 1.000000 0.000000
vn 0.000000 1.000000 0.000000
vn 0.000000 1.000000 0.000000
vn 0.000000 0.000000 -1.000000
vn 0.000000 0.000000 -1.000000
vn 0.000000 0.000000 -1.000000
vn 0.000000 0.000000 -1.000000
vn 0.000000 -1.000000 0.000000
vn 0.000000 -1.000000 0.000000
vn 0.000000 -1.000000 0.000000
vn 0.000000 -1.000000 0.000000
vn 1.000000 0.000000 0.000000
vn 1.000000 0.000000 0.000000
vn 1.000000 0.000000 0.000000
vn 1.000000 0.000000 0.000000
vn -1.000000 0.000000 0.000000
vn -1.000000 0.000000 0.000000
vn -1.000000 0.000000 0.000000
vn -1.000000 0.000000 0.000000
vn 0.000000 0.000000 1.000000
vn 0.000000 0.000000 1.000000
vn 0.000000 0.000000 1.000000
vn 0.000000 0.000000 1.000000
vn 0.000000 1.000000 0.000000
vn 0.000000 1.000000 0.000000
vn 0.000000 1.000000 0.000000
vn 0.000000 1.000000 0.000000
vn 0.000000 0.000000 -1.000000
vn 0.000000 0.000000 -1.000000
vn 0.000000 0.000000 -1.000000
vn 0.000000 0.000000 -1.000000
vn 0.000000 -1.000000 0.000000
vn 0.000000 -1.000000 0.000000
vn 0.000000 -1.000000 0.000000
vn 0.000000 -1.000000 0.000000
vn 1.000000 0.000000 0.000000
vn 1.000000 0.000000 0.000000
vn 1.000000 0.000000 0.000000
vn 1.000000 0.000000 0.000000
vn -1.000000 0.000000 0.000000
vn -1.000000 0.000000 0.000000
vn -1.000000 0.000000 0.000000
vn -1.000000 0.000000 0.000000
vn 0.000000 0.000000 1.000000
vn 0.000000 0.000000 1.000000
vn 0.000000 0.000000 1.000000
vn 0.000000 0.000000 1.000000
vn 0.000000 1.000000 0.000000
vn 0.000000 1.000000 0.000000
vn 0.000000 1.000000 0.000000
vn 0.000000 1.000000 0.000000
vn 0.000000 0.000000 -1.000000
vn 0.000000 0.000000 -1.000000
vn 0.000000 0.000000 -1.000000
vn 0.000000 0.000000 -1.000000
vn 0.000000 -1.000000 0.000000
vn 0.000000 -1.000000 0.000000
vn 0.000000 -1.000000 0.000000
vn 0.000000 -1.000000 0.000000
vn 1.000000 0.000000 0.000000
vn 1.000000 0.000000 0.000000
vn 1.000000 0.000000 0.000000
vn 1.000000 0.000000 0.000000
vn -1.000000 0.000000 0.000000
vn -1.000000 0.000000 0.000000
vn -1.000000 0.000000 0.000000
vn -1.000000 0.000000 0.000000
s off
g Wall_spike pCube47
usemtl aiStandard1SG
f 26/51/81 27/52/82 29/54/83 28/53/84
f 28/53/85 29/54/86 31/56/87 30/55/88
f 30/55/89 31/56/90 33/58/91 32/57/92
f 32/57/93 33/58/94 27/60/95 26/59/96
f 27/52/97 33/61/98 31/62/99 29/54/100
f 32/63/101 26/51/102 28/53/103 30/64/104
f 34/65/105 35/66/106 37/67/107 36/68/108
f 36/68/109 37/67/110 39/69/111 38/70/112
f 38/70/113 39/69/114 41/71/115 40/72/116
f 40/72/117 41/71/118 35/73/119 34/74/120
f 35/66/121 41/75/122 39/76/123 37/67/124
f 40/77/125 34/65/126 36/68/127 38/78/128
f 42/79/129 43/80/130 45/81/131 44/82/132
f 44/82/133 45/81/134 47/83/135 46/84/136
f 46/84/137 47/83/138 49/85/139 48/86/140
f 48/86/141 49/85/142 43/87/143 42/88/144
f 43/80/145 49/89/146 47/90/147 45/81/148
f 48/91/149 42/79/150 44/82/151 46/92/152
f 50/93/153 51/94/154 53/95/155 52/96/156
f 52/96/157 53/95/158 55/97/159 54/98/160
f 54/98/161 55/97/162 57/99/163 56/100/164
f 56/100/165 57/99/166 51/101/167 50/102/168
f 51/94/169 57/103/170 55/104/171 53/95/172
f 56/105/173 50/93/174 52/96/175 54/106/176
g default
v 0.206129 -0.411620 0.409350
v 0.292111 -0.411620 0.409350
v 0.206129 0.411620 0.409350
v 0.292111 0.411620 0.409350
v 0.206129 0.411620 -0.413889
v 0.292111 0.411620 -0.413889
v 0.206129 -0.411620 -0.413889
v 0.292111 -0.411620 -0.413889
vt 0.375000 0.000000
vt 0.625000 0.000000
vt 0.375000 0.250000
vt 0.625000 0.250000
vt 0.375000 0.500000
vt 0.625000 0.500000
vt 0.375000 0.750000
vt 0.625000 0.750000
vt 0.375000 1.000000
vt 0.625000 1.000000
vt 0.875000 0.000000
vt 0.875000 0.250000
vt 0.125000 0.000000
vt 0.125000 0.250000
vn 0.000000 0.000000 1.000000
vn 0.000000 0.000000 1.000000
vn 0.000000 0.000000 1.000000
vn 0.000000 0.000000 1.000000
vn 0.000000 1.000000 0.000000
vn 0.000000 1.000000 0.000000
vn 0.000000 1.000000 0.000000
vn 0.000000 1.000000 0.000000
vn 0.000000 0.000000 -1.000000
vn 0.000000 0.000000 -1.000000
vn 0.000000 0.000000 -1.000000
vn 0.000000 0.000000 -1.000000
vn 0.000000 -1.000000 0.000000
vn 0.000000 -1.000000 0.000000
vn 0.000000 -1.000000 0.000000
vn 0.000000 -1.000000 0.000000
vn 1.000000 0.000000 0.000000
vn 1.000000 0.000000 0.000000
vn 1.000000 0.000000 0.000000
vn 1.000000 0.000000 0.000000
vn -1.000000 0.000000 0.000000
vn -1.000000 0.000000 0.000000
vn -1.000000 0.000000 0.000000
vn -1.000000 0.000000 0.000000
s off
g Wall_spike pCube44
usemtl aiStandard1SG
f 58/107/177 59/108/178 61/110/179 60/109/180
f 60/109/181 61/110/182 63/112/183 62/111/184
f 62/111/185 63/112/186 65/114/187 64/113/188
f 64/113/189 65/114/190 59/116/191 58/115/192
f 59/108/193 65/117/194 63/118/195 61/110/196
f 64/119/197 58/107/198 60/109/199 62/120/200
g default
v -0.284312 -0.464346 0.074761
v -0.082599 -0.464346 0.074761
v -0.284312 0.438121 0.074761
v -0.082599 0.438121 0.074761
v -0.284312 0.438121 -0.076728
v -0.082599 0.438121 -0.076728
v -0.284312 -0.464346 -0.076728
v -0.082599 -0.464346 -0.076728
vt 0.375000 0.000000
vt 0.625000 0.000000
vt 0.375000 0.250000
vt 0.625000 0.250000
vt 0.375000 0.500000
vt 0.625000 0.500000
vt 0.375000 0.750000
vt 0.625000 0.750000
vt 0.375000 1.000000
vt 0.625000 1.000000
vt 0.875000 0.000000
vt 0.875000 0.250000
vt 0.125000 0.000000
vt 0.125000 0.250000
vn 0.000000 0.000000 1.000000
vn 0.000000 0.000000 1.000000
vn 0.000000 0.000000 1.000000
vn 0.000000 0.000000 1.000000
vn 0.000000 1.000000 0.000000
vn 0.000000 1.000000 0.000000
vn 0.000000 1.000000 0.000000
vn 0.000000 1.000000 0.000000
vn 0.000000 0.000000 -1.000000
vn 0.000000 0.000000 -1.000000
vn 0.000000 0.000000 -1.000000
vn 0.000000 0.000000 -1.000000
vn 0.000000 -1.000000 0.000000
vn 0.000000 -1.000000 0.000000
vn 0.000000 -1.000000 0.000000
vn 0.000000 -1.000000 0.000000
vn 1.000000 0.000000 0.000000
vn 1.000000 0.000000 0.000000
vn 1.000000 0.000000 0.000000
vn 1.000000 0.000000 0.000000
vn -1.000000 0.000000 0.000000
vn -1.000000 0.000000 0.000000
vn -1.000000 0.000000 0.000000
vn -1.000000 0.000000 0.000000
s off
g Wall_spike pCube43
usemtl aiStandard1SG
f 66/121/201 67/122/202 69/124/203 68/123/204
f 68/123/205 69/124/206 71/126/207 70/125/208
f 70/125/209 71/126/210 73/128/211 72/127/212
f 72/127/213 73/128/214 67/130/215 66/129/216
f 67/122/217 73/131/218 71/132/219 69/124/220
f 72/133/221 66/121/222 68/123/223 70/134/224
g default
v -0.157962 -0.500000 0.497731
v 0.258351 -0.500000 0.497731
v -0.157962 0.500000 0.497731
v 0.258351 0.500000 0.497731
v -0.157962 0.500000 -0.502269
v 0.258351 0.500000 -0.502269
v -0.157962 -0.500000 -0.502269
v 0.258351 -0.500000 -0.502269
vt 0.375000 0.000000
vt 0.625000 0.000000
vt 0.375000 0.250000
vt 0.625000 0.250000
vt 0.375000 0.500000
vt 0.625000 0.500000
vt 0.375000 0.750000
vt 0.625000 0.750000
vt 0.375000 1.000000
vt 0.625000 1.000000
vt 0.875000 0.000000
vt 0.875000 0.250000
vt 0.125000 0.000000
vt 0.125000 0.250000
vn 0.000000 0.000000 1.000000
vn 0.000000 0.000000 1.000000
vn 0.000000 0.000000 1.000000
vn 0.000000 0.000000 1.000000
vn 0.000000 1.000000 0.000000
vn 0.000000 1.000000 0.000000
vn 0.000000 1.000000 0.000000
vn 0.000000 1.000000 0.000000
vn 0.000000 0.000000 -1.000000
vn 0.000000 0.000000 -1.000000
vn 0.000000 0.000000 -1.000000
vn 0.000000 0.000000 -1.000000
vn 0.000000 -1.000000 0.000000
vn 0.000000 -1.000000 0.000000
vn 0.000000 -1.000000 0.000000
vn 0.000000 -1.000000 0.000000
vn 1.000000 0.000000 0.000000
vn 1.000000 0.000000 0.000000
vn 1.000000 0.000000 0.000000
vn 1.000000 0.000000 0.000000
vn -1.000000 0.000000 0.000000
vn -1.000000 0.000000 0.000000
vn -1.000000 0.000000 0.000000
vn -1.000000 0.000000 0.000000
s off
g Wall_spike pCube42
usemtl aiStandard1SG
f 74/135/225 75/136/226 77/138/227 76/137/228
f 76/137/229 77/138/230 79/140/231 78/139/232
f 78/139/233 79/140/234 81/142/235 80/141/236
f 80/141/237 81/142/238 75/144/239 74/143/240
f 75/136/241 81/145/242 79/146/243 77/138/244
f 80/147/245 74/135/246 76/137/247 78/148/248
